# xmcd CD database file
#
# Track frame offsets:
#	150
#	17828
#	39699
#	57622
#	84126
#	101776
#	117965
#	138580
#	166987
#	183122
#	201407
#	218099
#	235389
#	251975
#	274225
#	293149
#	317780
#	327278
#	339481
#
# Disc length: 4780 seconds
#
# Revision: 0
# Processed by: cddbd v1.5.2PL0 Copyright (c) Steve Scherf et al.
# Submitted via: CDex 1.70beta2
#
DISCID=2612aa13
DTITLE=(V-A) - Le Blues Autor Zinc. Voll 11
DYEAR=2006
DGENRE=Blues
TTITLE0=Superslinger - One Night Stand
TTITLE1=Durango - What's Man
TTITLE2=Karl W. Davis and The Milkmen - Sunshine
TTITLE3=Ian Siegal - Butter Side Up
TTITLE4=The Dallas Explosion - Depression a Fulltime Job
TTITLE5=Dionysos - La Metamorphose de Mister Cat
TTITLE6=The Imperial Crowns - Lil' death
TTITLE7=Voodoo Boogie - I Gave You Love
TTITLE8=Hell's Kitchen - My House
TTITLE9=Varpen - Everyday Life
TTITLE10=Donald Ray Johnson - Rocking In The Same Old Boat
TTITLE11=Sean Webster - Hero
TTITLE12=The Jetsurfers - Fireworks
TTITLE13=Beverley Jo Scott - O Desire (live)
TTITLE14=JJ Milteau feat. Terry Callier - Some Kind Of Pressure
TTITLE15=The Five Aces - Volcano
TTITLE16=T 99 - Regalo Para Donna
TTITLE17=Jolly Jumper and BIG Moe - Age is getting me
TTITLE18=No Blues - Columbus Stockade
EXTD=YEAR: 2006
EXTT0=
EXTT1=
EXTT2=
EXTT3=
EXTT4=
EXTT5=
EXTT6=
EXTT7=
EXTT8=
EXTT9=
EXTT10=
EXTT11=
EXTT12=
EXTT13=
EXTT14=
EXTT15=
EXTT16=
EXTT17=
EXTT18=
PLAYORDER=
